<svg width="30" height="27" viewBox="0 0 30 27" fill="none" xmlns="http://www.w3.org/2000/svg">
<path d="M17.9664 5.04346L2.16097 19.3225C2.08145 19.3946 2.02404 19.4855 1.9967 19.5833L0.24481 25.9354C0.192406 26.1266 0.254607 26.33 0.409085 26.4696C0.525968 26.5751 0.685231 26.6336 0.848139 26.6336C0.898036 26.6336 0.949073 26.628 0.998743 26.6167L8.03043 25.0339C8.14003 25.0092 8.23959 24.9576 8.31911 24.8857L24.1259 10.6077L17.9664 5.04346Z" fill="#B2A49B"/>
<path d="M28.4544 2.446L26.8266 0.857267C25.7386 -0.204564 23.8424 -0.203535 22.7557 0.857267L20.7617 2.80337L26.4604 8.36518L28.4544 6.41907C28.9979 5.88888 29.2972 5.18318 29.2972 4.43264C29.2972 3.6821 28.9979 2.9764 28.4544 2.446Z" fill="#B2A49B"/>
</svg>
